<?xml version="1.0" encoding="iso-8859-1"?>
<!-- Generator: Adobe Illustrator 19.0.0, SVG Export Plug-In . SVG Version: 6.00 Build 0)  -->
<svg version="1.1" id="Capa_1" xmlns="http://www.w3.org/2000/svg" xmlns:xlink="http://www.w3.org/1999/xlink" x="0px" y="0px"
	 viewBox="0 0 512 512" style="enable-background:new 0 0 512 512;" xml:space="preserve">
<path style="fill:#F25D5F;" d="M365.816,348H146.215c-5.442,0-9.854-4.412-9.854-9.854V173.855c0-5.442,4.412-9.854,9.854-9.854
	h219.601c5.442,0,9.854,4.412,9.854,9.854v164.293C375.67,343.589,371.258,348,365.816,348z"/>
<path style="fill:#D15052;" d="M365.816,164.001h-30c5.442,0,9.854,4.412,9.854,9.854v164.293c0,5.442-4.412,9.854-9.854,9.854h30
	c5.442,0,9.854-4.412,9.854-9.854V173.855C375.67,168.413,371.258,164.001,365.816,164.001z"/>
<circle style="fill:#FFA143;" cx="256" cy="22.501" r="15"/>
<path style="fill:#4E5498;" d="M291.082,107.501h-70.165c-1.611,0-2.918-1.306-2.918-2.918V60.841c0-12.89,10.45-23.34,23.34-23.34
	h29.319c12.89,0,23.34,10.45,23.34,23.34v43.742C294,106.195,292.694,107.501,291.082,107.501z"/>
<path style="fill:#40457D;" d="M270.66,37.501h-29.32c-0.114,0-0.227,0.007-0.34,0.009c12.733,0.183,23,10.555,23,23.332v43.742
	c0,1.611-1.306,2.917-2.917,2.917h30c1.611,0,2.917-1.306,2.917-2.917V60.841C294,47.951,283.55,37.501,270.66,37.501z"/>
<circle style="fill:#FFA143;" cx="256" cy="419.5" r="15"/>
<path style="fill:#4E5498;" d="M291.082,504.5h-70.165c-1.611,0-2.918-1.306-2.918-2.918v-43.742c0-12.89,10.45-23.34,23.34-23.34
	h29.319c12.89,0,23.34,10.45,23.34,23.34v43.742C294,503.195,292.694,504.5,291.082,504.5z"/>
<path style="fill:#40457D;" d="M270.66,434.5h-29.32c-0.114,0-0.227,0.007-0.34,0.009c12.733,0.183,23,10.555,23,23.332v43.742
	c0,1.611-1.306,2.917-2.917,2.917h30c1.611,0,2.917-1.306,2.917-2.917v-43.743C294,444.951,283.55,434.5,270.66,434.5z"/>
<circle style="fill:#FFA143;" cx="45.5" cy="221.001" r="15"/>
<path style="fill:#4E5498;" d="M80.582,306H10.418c-1.611,0-2.918-1.306-2.918-2.918v-43.742c0-12.89,10.45-23.34,23.34-23.34h29.32
	c12.89,0,23.34,10.45,23.34,23.34v43.742C83.5,304.695,82.194,306,80.582,306z"/>
<path style="fill:#40457D;" d="M60.16,236.001H30.84c-0.114,0-0.227,0.007-0.34,0.009c12.733,0.183,23,10.555,23,23.332v43.742
	c0,1.611-1.306,2.917-2.917,2.917h30c1.611,0,2.917-1.306,2.917-2.917v-43.743C83.5,246.451,73.05,236.001,60.16,236.001z"/>
<circle style="fill:#FFA143;" cx="466.5" cy="221.001" r="15"/>
<path style="fill:#4E5498;" d="M501.582,306h-70.165c-1.611,0-2.918-1.306-2.918-2.918v-43.742c0-12.89,10.45-23.34,23.34-23.34
	h29.319c12.89,0,23.34,10.45,23.34,23.34v43.742C504.5,304.695,503.194,306,501.582,306z"/>
<path style="fill:#40457D;" d="M481.16,236.001h-29.32c-0.114,0-0.227,0.007-0.34,0.009c12.733,0.183,23,10.555,23,23.332v43.742
	c0,1.611-1.306,2.917-2.917,2.917h30c1.611,0,2.917-1.306,2.917-2.917v-43.743C504.5,246.451,494.05,236.001,481.16,236.001z"/>
<circle style="fill:#F2DC50;" cx="256" cy="256" r="65"/>
<path d="M327.625,348c0-4.142-3.357-7.5-7.5-7.5h-173.91c-1.298,0-2.354-1.056-2.354-2.354v-13.083c2.911-1.031,5-3.8,5-7.064
	c0-3.264-2.089-6.033-5-7.064V201.064c2.911-1.031,5-3.8,5-7.064s-2.089-6.033-5-7.064v-13.083c0-1.298,1.056-2.354,2.354-2.354H160
	c4.142,0,7.5-3.358,7.5-7.5s-3.358-7.5-7.5-7.5h-13.785c-9.569,0-17.354,7.785-17.354,17.354v164.293
	c0,9.569,7.785,17.354,17.354,17.354h173.91C324.268,355.5,327.625,352.143,327.625,348z"/>
<path d="M383.17,338.146V173.855c0-9.569-7.785-17.354-17.354-17.354H191.75c-4.142,0-7.5,3.358-7.5,7.5s3.358,7.5,7.5,7.5h174.066
	c1.298,0,2.354,1.056,2.354,2.354v13.082c-2.911,1.031-5,3.8-5,7.064s2.089,6.033,5,7.064v110.156c-2.544,1.2-4.309,3.78-4.309,6.78
	s1.765,5.58,4.309,6.78v13.367c0,1.298-1.056,2.354-2.354,2.354h-13.441c-4.143,0-7.5,3.358-7.5,7.5c0,4.142,3.357,7.5,7.5,7.5
	h13.441C375.385,355.5,383.17,347.716,383.17,338.146"/>
<path d="M220.917,115.001h70.165c5.744,0,10.418-4.673,10.418-10.417V60.841c0-14.845-10.543-27.271-24.534-30.19
	c0.987-2.529,1.534-5.276,1.534-8.15c0-12.407-10.094-22.5-22.5-22.5c-12.407,0-22.5,10.093-22.5,22.5
	c0,2.874,0.548,5.621,1.534,8.15C221.043,33.57,210.5,45.997,210.5,60.841v43.742C210.5,110.328,215.173,115.001,220.917,115.001z
	 M256,15.001c4.136,0,7.5,3.364,7.5,7.5s-3.364,7.5-7.5,7.5s-7.5-3.364-7.5-7.5S251.864,15.001,256,15.001z M225.5,60.841
	c0-8.734,7.106-15.84,15.84-15.84h29.32c8.734,0,15.84,7.106,15.84,15.84v39.16h-61V60.841z"/>
<path d="M276.966,427.651c0.987-2.529,1.534-5.276,1.534-8.15c0-12.407-10.094-22.5-22.5-22.5c-12.407,0-22.5,10.093-22.5,22.5
	c0,2.874,0.548,5.621,1.534,8.15c-13.991,2.919-24.534,15.345-24.534,30.19v43.742c0,5.744,4.673,10.417,10.417,10.417h70.165
	c5.744,0,10.418-4.673,10.418-10.417v-43.742C301.5,442.997,290.957,430.57,276.966,427.651z M256,412c4.136,0,7.5,3.364,7.5,7.5
	s-3.364,7.5-7.5,7.5s-7.5-3.364-7.5-7.5S251.864,412,256,412z M286.5,497h-61v-39.16c0-8.734,7.106-15.84,15.84-15.84h29.32
	c8.734,0,15.84,7.106,15.84,15.84V497z"/>
<path d="M91,303.083v-43.743c0-14.845-10.543-27.271-24.534-30.19c0.986-2.529,1.534-5.276,1.534-8.15
	c0-12.407-10.093-22.5-22.5-22.5S23,208.594,23,221.001c0,2.874,0.548,5.621,1.534,8.15C10.543,232.07,0,244.497,0,259.341v43.742
	c0,5.744,4.673,10.417,10.417,10.417h70.165C86.327,313.5,91,308.828,91,303.083z M45.5,213.501c4.136,0,7.5,3.364,7.5,7.5
	s-3.364,7.5-7.5,7.5s-7.5-3.364-7.5-7.5S41.364,213.501,45.5,213.501z M76,298.5H15v-39.16c0-8.734,7.106-15.84,15.84-15.84h29.32
	c8.734,0,15.84,7.106,15.84,15.84V298.5z"/>
<path d="M487.466,229.15c0.987-2.529,1.534-5.276,1.534-8.15c0-12.407-10.094-22.5-22.5-22.5s-22.5,10.093-22.5,22.5
	c0,2.874,0.548,5.621,1.534,8.15C431.543,232.07,421,244.497,421,259.341v43.742c0,5.744,4.674,10.417,10.418,10.417h70.164
	c5.744,0,10.418-4.673,10.418-10.417v-43.742C512,244.497,501.457,232.07,487.466,229.15z M466.5,213.501c4.136,0,7.5,3.364,7.5,7.5
	s-3.364,7.5-7.5,7.5s-7.5-3.364-7.5-7.5S462.364,213.501,466.5,213.501z M497,298.5h-61v-39.16c0-8.734,7.105-15.84,15.84-15.84
	h29.32c8.734,0,15.84,7.106,15.84,15.84V298.5z"/>
<path d="M183.15,430.205c-46.708-19.583-84.119-57.835-102.64-104.948c-1.516-3.855-5.872-5.751-9.724-4.236
	c-3.855,1.516-5.751,5.869-4.236,9.724c19.995,50.859,60.379,92.153,110.8,113.292c0.947,0.397,1.93,0.585,2.897,0.585
	c2.931,0,5.715-1.729,6.919-4.602C188.768,436.201,186.97,431.805,183.15,430.205z"/>
<path d="M129.971,113.692c1.703,0,3.416-0.577,4.822-1.759c14.587-12.26,30.856-22.197,48.358-29.536
	c3.82-1.602,5.618-5.997,4.016-9.817c-1.602-3.819-5.997-5.618-9.817-4.016c-18.897,7.924-36.462,18.652-52.208,31.886
	c-3.171,2.665-3.581,7.396-0.916,10.567C125.709,112.783,127.833,113.692,129.971,113.692z"/>
<path d="M73.885,183.351c0.993,0.443,2.03,0.652,3.051,0.652c2.87,0,5.609-1.657,6.854-4.447
	c7.556-16.939,17.575-32.66,29.777-46.726c2.714-3.129,2.378-7.866-0.75-10.58c-3.127-2.714-7.865-2.378-10.58,0.75
	c-13.172,15.183-23.987,32.155-32.146,50.445C68.403,177.229,70.102,181.663,73.885,183.351z"/>
<path d="M328.85,82.397c44.437,18.632,79.724,53.138,99.36,97.159c1.245,2.791,3.984,4.447,6.854,4.447
	c1.021,0,2.059-0.21,3.052-0.652c3.782-1.688,5.481-6.122,3.794-9.905c-21.197-47.52-59.289-84.768-107.259-104.881
	c-3.822-1.602-8.215,0.197-9.817,4.016C323.231,76.401,325.03,80.796,328.85,82.397z"/>
<path d="M441.214,321.021c-3.854-1.517-8.208,0.381-9.725,4.236c-18.521,47.112-55.931,85.364-102.64,104.948
	c-3.819,1.602-5.618,5.997-4.017,9.816c1.205,2.873,3.989,4.602,6.92,4.602c0.967,0,1.95-0.188,2.897-0.585
	c50.421-21.14,90.806-62.434,110.8-113.292C446.965,326.89,445.068,322.536,441.214,321.021z"/>
<path d="M183.5,256c0,39.977,32.523,72.5,72.5,72.5s72.5-32.523,72.5-72.5s-32.523-72.5-72.5-72.5S183.5,216.023,183.5,256z
	 M313.5,256c0,31.706-25.794,57.5-57.5,57.5s-57.5-25.794-57.5-57.5s25.794-57.5,57.5-57.5S313.5,224.295,313.5,256z"/>
<path d="M248.5,209.001v6.147c-10.132,3.161-17.5,12.547-17.5,23.607s7.368,20.446,17.5,23.607v17.31
	c-1.551-1.717-2.5-3.963-2.5-6.425c0-4.142-3.358-7.5-7.5-7.5s-7.5,3.358-7.5,7.5c0,11.059,7.368,20.446,17.5,23.607V303
	c0,4.142,3.358,7.5,7.5,7.5c4.143,0,7.5-3.358,7.5-7.5v-6.147c10.132-3.161,17.5-12.547,17.5-23.607s-7.368-20.446-17.5-23.607
	v-17.31c1.551,1.718,2.5,3.963,2.5,6.425c0,4.142,3.357,7.5,7.5,7.5s7.5-3.358,7.5-7.5c0-11.059-7.368-20.446-17.5-23.607v-6.147
	c0-4.142-3.357-7.5-7.5-7.5C251.858,201.501,248.5,204.859,248.5,209.001z M246,238.755c0-2.462,0.949-4.708,2.5-6.425v12.85
	C246.949,243.462,246,241.217,246,238.755z M266,273.247c0,2.462-0.949,4.707-2.5,6.425v-12.85
	C265.051,268.539,266,270.784,266,273.247z"/>
<g>
</g>
<g>
</g>
<g>
</g>
<g>
</g>
<g>
</g>
<g>
</g>
<g>
</g>
<g>
</g>
<g>
</g>
<g>
</g>
<g>
</g>
<g>
</g>
<g>
</g>
<g>
</g>
<g>
</g>
</svg>
