<?xml version="1.0" encoding="iso-8859-1"?>
<!-- Generator: Adobe Illustrator 17.1.0, SVG Export Plug-In . SVG Version: 6.00 Build 0)  -->
<!DOCTYPE svg PUBLIC "-//W3C//DTD SVG 1.1//EN" "http://www.w3.org/Graphics/SVG/1.1/DTD/svg11.dtd">
<svg version="1.1" id="Capa_1" xmlns="http://www.w3.org/2000/svg" xmlns:xlink="http://www.w3.org/1999/xlink" x="0px" y="0px"
	 viewBox="0 0 417.526 417.526" style="enable-background:new 0 0 417.526 417.526;" xml:space="preserve">
<g>
	<path style="fill:#231F20;" d="M258.691,210.891l-49.928,129l-49.928-129c-40.305,22.99-68.238,72.941-68.238,130.871v75.765
		h236.331v-75.765C326.929,283.832,298.996,233.881,258.691,210.891z"/>
	<path style="fill:#231F20;" d="M208.763,210.847c-3.754,0-7.02,2.085-8.706,5.16l-22.015-12.043v33.613l22.014-12.044
		c1.686,3.076,4.952,5.162,8.706,5.162c3.754,0,7.02-2.086,8.706-5.162l22.016,12.044v-33.613l-22.017,12.043
		C215.783,212.933,212.517,210.847,208.763,210.847z"/>
	<path style="fill:#231F20;" d="M166.034,180.488c12.516,9.017,27.292,13.782,42.729,13.782s30.213-4.766,42.728-13.782
		c19.07-13.736,30.456-35.942,30.456-59.401c0-18-6.605-35.306-18.597-48.731l-5.218-5.842h-98.737l-5.218,5.842
		c-11.992,13.426-18.597,30.733-18.597,48.731C135.58,144.547,146.965,166.753,166.034,180.488z"/>
	<rect x="157.652" y="0" style="fill:#231F20;" width="102.223" height="50.762"/>
</g>
<g>
</g>
<g>
</g>
<g>
</g>
<g>
</g>
<g>
</g>
<g>
</g>
<g>
</g>
<g>
</g>
<g>
</g>
<g>
</g>
<g>
</g>
<g>
</g>
<g>
</g>
<g>
</g>
<g>
</g>
</svg>
