<?xml version="1.0" encoding="iso-8859-1"?>
<!-- Generator: Adobe Illustrator 19.0.0, SVG Export Plug-In . SVG Version: 6.00 Build 0)  -->
<svg version="1.1" id="Capa_1" xmlns="http://www.w3.org/2000/svg" xmlns:xlink="http://www.w3.org/1999/xlink" x="0px" y="0px"
	 viewBox="0 0 512 512" style="enable-background:new 0 0 512 512;" xml:space="preserve">
<path style="fill:#0E7C95;" d="M172.121,217.753c-4.194,0-7.593,3.273-7.593,7.311c0,10.396,0,204.395,0,216.663v2.991
	c30.65-4.885,62.755-7.49,95.836-7.49c6.758,0,13.471,0.12,20.144,0.333v-2.991V220.744v-2.991H172.121z"/>
<g>
	<path style="fill:#0A6D77;" d="M184.468,441.727c0-12.258,0-206.266,0-216.663c0-4.038,3.4-7.311,7.593-7.311h-19.941
		c-4.194,0-7.593,3.273-7.593,7.311v2.991v213.671v2.991c6.58-1.049,13.232-1.986,19.941-2.822V441.727z"/>
	<path style="fill:#0A6D77;" d="M280.304,437.228c-3.322,0-6.631,0.034-9.932,0.086c3.389,0.057,6.768,0.14,10.136,0.248v-0.332
		C280.439,437.229,280.372,437.228,280.304,437.228z"/>
</g>
<path style="fill:#A5AFAF;" d="M421.465,88.681h-108.36c-4.991,0-9.076,4.084-9.076,9.075c0,34.707,0,2.356,0,38.239H430.54
	c0-15.656,0-19.362,0-35.248v-2.991C430.541,92.766,426.457,88.681,421.465,88.681z"/>
<path style="fill:#98A0A0;" d="M323.97,97.757c0-4.991,4.084-9.075,9.076-9.075h-19.941c-4.991,0-9.076,4.084-9.076,9.075
	c0,34.707,0,2.356,0,38.239h19.941v-2.991C323.97,117.124,323.97,113.423,323.97,97.757z"/>
<path style="fill:#C0CDCE;" d="M454.166,133.005H283.341c-3.946,0-7.146,3.198-7.146,7.146V434.57l185.314,41.893V329.74
	c0.045,0,0.09,0.003,0.135,0.003v-189.26C461.644,136.353,458.296,133.005,454.166,133.005z"/>
<path style="fill:#AFBCBC;" d="M296.136,140.445c0-4.109,3.331-7.44,7.44-7.44h-20.235c-3.946,0-7.146,3.198-7.146,7.146V434.57
	l19.941,4.508V140.445z"/>
<path style="fill:#4CE079;" d="M97.06,336.792c-22.165,1.388-35.53,26.56-23.013,45.814c3.595,5.531-5.205,8.013-4.77,22.814
	c0.446,15.191,12.611,27.804,27.779,28.756c17.276,1.084,31.624-12.607,31.624-29.648c0-14.456-8.344-16.743-5.24-21.24
	C137.417,363.036,121.938,335.234,97.06,336.792z"/>
<path style="fill:#32CC65;" d="M89.218,405.42c-0.184-6.3,1.595-12.174,4.77-17.057c1.141-1.755,1.141-4.003,0-5.758
	c-10.517-16.175-2.917-37.714,14.967-44.147c-26.836-9.577-50.2,20.629-34.908,44.147c3.595,5.531-5.204,8.013-4.77,22.814
	c0.446,15.191,12.611,27.805,27.779,28.756c4.195,0.263,8.214-0.351,11.899-1.666C97.736,428.475,89.581,417.805,89.218,405.42z"/>
<path style="fill:#29B288;" d="M499.245,503.735c5.377,0,7.278-7.149,2.601-9.802c-65.552-37.173-151.249-59.696-245.045-59.696
	c-93.85,0-179.591,22.549-245.158,59.76c-4.646,2.637-2.759,9.738,2.584,9.738H499.245z"/>
<path style="fill:#21A378;" d="M51.525,493.997c60.891-34.558,139.189-56.457,225.216-59.406c-6.604-0.226-13.25-0.354-19.941-0.354
	c-93.85,0-179.591,22.549-245.157,59.76c-4.646,2.637-2.759,9.738,2.584,9.738h39.881C48.766,503.735,46.879,496.634,51.525,493.997
	z"/>
<path style="fill:#FAC149;" d="M142.249,56.373c12.176-4.063,25.678,0.3,33.119,11.042c6.561-1.697,13.544-1.541,20.044,0.49
	c15.609-26.137-3.216-59.664-33.9-59.664c-15.45,0-28.817,8.884-35.296,21.817C134.133,36.741,139.884,45.913,142.249,56.373z"/>
<path style="fill:#F8A748;" d="M183.656,44.537c-7.478-6.201-16.661-9.996-26.419-10.854c-4.098-7.646-9.605-14.318-16.115-19.748
	c-6.362,3.854-11.559,9.44-14.906,16.122c7.917,6.685,13.668,15.856,16.032,26.316c12.177-4.063,25.678,0.3,33.119,11.042
	c6.561-1.697,13.544-1.541,20.044,0.49c3.751-6.281,5.706-13.461,5.541-21.076C195.268,45.134,189.373,44.394,183.656,44.537z"/>
<path style="fill:#4CE079;" d="M504.5,372.732c0-24.295-20.152-43.883-44.652-42.961c-22.482,0.846-40.721,19.307-41.316,41.797
	c-0.259,9.792,2.762,18.866,8.037,26.211c1.085,1.51,1.085,3.514,0,5.023c-5.275,7.344-8.295,16.416-8.037,26.207
	c0.592,22.49,18.83,40.952,41.311,41.802c24.503,0.925,44.657-18.663,44.657-42.96c0-9.059-2.805-17.461-7.59-24.39
	c-1.318-1.908-1.318-4.428,0-6.336C501.696,390.192,504.5,381.79,504.5,372.732z"/>
<path style="fill:#32CC65;" d="M438.473,429.009c-0.258-9.791,2.762-18.863,8.037-26.207c1.085-1.51,1.085-3.514,0-5.023
	c-5.276-7.344-8.296-16.418-8.037-26.211c0.519-19.644,14.501-36.21,33.011-40.654c-3.716-0.883-7.615-1.294-11.635-1.143
	c-22.482,0.846-40.721,19.307-41.316,41.797c-0.259,9.793,2.762,18.866,8.037,26.211c1.085,1.51,1.085,3.514,0,5.023
	c-5.275,7.343-8.295,16.416-8.037,26.207c0.592,22.49,18.83,40.952,41.311,41.802c4.022,0.152,7.922-0.259,11.64-1.143
	C452.972,465.223,438.99,448.653,438.473,429.009z"/>
<path style="fill:#A4D9F4;" d="M219.699,92.841c-2.676-14.06-13.892-25.154-27.965-27.759c-11.453-2.12-14.223,1.976-17.052-1.436
	c-6.301-7.603-15.991-11.295-25.638-9.932c-2.826,0.399-5.501-1.21-6.44-3.905c-6.394-18.332-23.824-31.489-44.338-31.489
	c-25.633,0-46.457,20.543-46.937,46.062c-0.004,0.013-0.01,0.021-0.014,0.034c-0.508,1.854-1.879,1.875-2.55,1.765
	c-0.123-0.028-0.243-0.06-0.366-0.087c-0.005-0.002-0.014-0.005-0.014-0.005l-0.001,0.001c-3.225-0.706-6.616-0.969-10.109-0.714
	C21.147,66.627,7.342,80.415,6.079,97.545c-1.51,20.478,14.657,37.562,34.816,37.562c2.185,0,142.979,0,144.145,0
	C206.818,135.107,223.993,115.395,219.699,92.841z"/>
<g>
	<path style="fill:#77CFF2;" d="M59.072,63.529c3.585-0.262,7.066,0.009,10.376,0.733l0.001-0.001c0,0,0.009,0.003,0.014,0.005
		c0.126,0.028,0.249,0.061,0.375,0.09c0.688,0.114,2.096,0.093,2.617-1.811c0.004-0.014,0.01-0.022,0.014-0.035
		c0.377-20,12.932-37.009,30.556-43.942c-1.566-0.158-3.153-0.248-4.76-0.248c-25.633,0-46.457,20.543-46.937,46.062
		c-0.004,0.013-0.01,0.021-0.014,0.034c-0.067,0.244-0.15,0.453-0.243,0.637C53.63,64.252,56.31,63.731,59.072,63.529z"/>
	<path style="fill:#77CFF2;" d="M26.022,96.549c1.017-13.788,9.952-25.465,22.241-30.483c-3.189-0.686-6.537-0.944-9.985-0.692
		c-17.13,1.253-30.935,15.041-32.198,32.17c-1.51,20.478,14.657,37.562,34.816,37.562c26.595,0,15.383,0,20.865,0
		C41.068,135.107,24.472,117.57,26.022,96.549z"/>
</g>
<path d="M42.392,142.585h144.145c23.599,0,42.799-19.2,42.799-42.801c0-16.143-8.986-30.223-22.217-37.511
	c1.851-5.032,2.83-10.372,2.83-15.786c0-43.707-55.716-62.215-81.984-27.857C94.462-1.553,51.05,19.281,45.82,57.938
	C21.068,55.946,0,75.559,0,100.193C0,123.567,19.017,142.585,42.392,142.585z M164.225,15.718c21.431,0,36.459,21.554,28.744,41.749
	c-3.961-0.598-8.154-0.654-12.333-0.076c-7.649-8.254-18.734-12.412-29.889-11.236c-2.54-6.845-6.368-12.956-11.161-18.099
	C145.335,20.337,154.364,15.718,164.225,15.718z M50.61,74.008c4.909,1.538,9.874-2.239,9.708-7.377
	c-0.014-0.401-0.037-0.98-0.037-1.352c0-21.77,17.711-39.483,39.483-39.483c18.246,0,34.408,12.876,38.475,30.641
	c0.973,4.264,5.004,6.577,8.861,5.765c1.003-0.205,3.426-1.286,7.382-1.286c6.884,0,13.222,3.438,17.027,8.932
	c4.854,7.009,10.008-0.55,22.903,3.232c11.53,3.406,19.971,14.084,19.971,26.703c0,15.353-12.491,27.845-27.843,27.845H42.392
	c-15.128,0.001-27.436-12.307-27.436-27.435C14.956,81.786,32.877,68.456,50.61,74.008z"/>
<path d="M195.137,266.109h50.35c4.13,0,7.478-3.348,7.478-7.478c0-4.13-3.348-7.478-7.478-7.478h-50.35
	c-4.13,0-7.478,3.348-7.478,7.478C187.659,262.761,191.007,266.109,195.137,266.109z"/>
<path d="M195.137,302.541h50.35c4.13,0,7.478-3.348,7.478-7.478c0-4.13-3.348-7.478-7.478-7.478h-50.35
	c-4.13,0-7.478,3.348-7.478,7.478C187.659,299.193,191.007,302.541,195.137,302.541z"/>
<path d="M195.137,338.972h50.35c4.13,0,7.478-3.348,7.478-7.478c0-4.13-3.348-7.478-7.478-7.478h-50.35
	c-4.13,0-7.478,3.348-7.478,7.478C187.659,335.624,191.007,338.972,195.137,338.972z"/>
<path d="M195.137,375.405h50.35c4.13,0,7.478-3.348,7.478-7.478c0-4.13-3.348-7.478-7.478-7.478h-50.35
	c-4.13,0-7.478,3.348-7.478,7.478C187.659,372.057,191.007,375.405,195.137,375.405z"/>
<path d="M195.137,411.837h50.35c4.13,0,7.478-3.348,7.478-7.478c0-4.13-3.348-7.478-7.478-7.478h-50.35
	c-4.13,0-7.478,3.348-7.478,7.478C187.659,408.489,191.007,411.837,195.137,411.837z"/>
<path d="M427.745,251.154H306.826c-4.13,0-7.478,3.348-7.478,7.478s3.348,7.478,7.478,7.478h120.918c4.13,0,7.478-3.348,7.478-7.478
	C435.222,254.502,431.874,251.154,427.745,251.154z"/>
<path d="M427.745,287.585H306.826c-4.13,0-7.478,3.348-7.478,7.478c0,4.13,3.348,7.478,7.478,7.478h120.918
	c4.13,0,7.478-3.348,7.478-7.478C435.222,290.933,431.874,287.585,427.745,287.585z"/>
<path d="M427.745,178.289H306.826c-4.13,0-7.478,3.348-7.478,7.478s3.348,7.478,7.478,7.478h120.918c4.13,0,7.478-3.348,7.478-7.478
	S431.874,178.289,427.745,178.289z"/>
<path d="M427.745,214.722H306.826c-4.13,0-7.478,3.348-7.478,7.478s3.348,7.478,7.478,7.478h120.918c4.13,0,7.478-3.348,7.478-7.478
	S431.874,214.722,427.745,214.722z"/>
<path d="M505.534,487.429c-8.019-4.547-16.31-8.848-24.827-12.914c29.259-12.082,40.337-47.741,23.077-74.225
	c20.064-30.788,1.413-71.972-34.664-77.454v-10.325c0-4.13-3.348-7.478-7.478-7.478c-4.13,0-7.478,3.348-7.478,7.478v10.282
	c-6.84,0.997-13.462,3.482-19.146,6.998c-0.772-3.308-3.733-5.775-7.275-5.775H306.826c-4.13,0-7.478,3.348-7.478,7.478
	c0,4.13,3.348,7.478,7.478,7.478h117.202c-5.7,6.333-9.533,13.756-11.471,21.477H306.826c-4.13,0-7.478,3.348-7.478,7.478
	c0,4.13,3.348,7.478,7.478,7.478h104.292c0.403,7.544,2.496,14.888,6.084,21.476H306.826c-4.13,0-7.478,3.348-7.478,7.478
	c0,4.13,3.348,7.478,7.478,7.478h106.828c-4.293,12.823-3.077,26.498,2.223,37.691c-42.696-12.942-87.267-20.105-132.205-22.146
	V217.753v-77.27h170.493v137.132c0,4.13,3.348,7.478,7.478,7.478c4.13,0,7.478-3.348,7.478-7.478V140.483
	c0-8.246-6.709-14.956-14.956-14.956h-16.147v-27.77c0-9.128-7.426-16.554-16.554-16.554h-108.36
	c-9.128,0-16.554,7.426-16.554,16.554v27.771H283.34c-8.063,0-14.624,6.56-14.624,14.623v70.124h-96.878
	c-8.155,0-14.789,6.634-14.789,14.789v210.415c-17.271,3.073-34.177,6.943-50.599,11.572v-6.092
	c16.933-3.471,29.709-18.487,29.709-36.431c0-6.729-1.838-13.316-5.25-19.044c3.413-5.726,5.25-12.315,5.25-19.043
	c0-20.504-16.681-37.186-37.186-37.186c-28.674,0-46.744,31.384-31.936,56.23c-3.413,5.727-5.25,12.315-5.25,19.044
	c0,17.944,12.776,32.96,29.709,36.431v10.559c-29.94,9.463-58.064,21.516-83.543,35.977c-5.077,2.881-7.486,8.613-5.995,14.263
	c1.494,5.656,6.424,9.457,12.271,9.457h223.566c4.13,0,7.478-3.348,7.478-7.478c0-4.13-3.348-7.478-7.478-7.478H23.022
	c123.619-66.348,298.445-72.082,431.01-17.251v17.251H272.689c-4.13,0-7.478,3.348-7.478,7.478c0,4.13,3.348,7.478,7.478,7.478
	h226.556C512.293,511.213,516.877,493.861,505.534,487.429z M311.508,97.757c0-0.866,0.732-1.598,1.598-1.598
	c116.112,0,109.958-0.685,109.958,1.598v27.77H311.508V97.757z M98.973,382.43c-4.13,0-7.478,3.348-7.478,7.478v35.554
	c-8.589-3.078-14.753-11.298-14.753-20.934c0-5.201,1.836-10.26,5.17-14.248c2.322-2.777,2.322-6.818,0-9.594
	c-12.065-14.426-1.738-36.477,17.061-36.477c12.258,0,22.231,9.972,22.231,22.231c0,5.201-1.836,10.26-5.17,14.247
	c-2.322,2.777-2.322,6.818,0,9.594c9.886,11.821,4.989,29.959-9.583,35.18v-35.554C106.45,385.778,103.102,382.43,98.973,382.43z
	 M268.718,426.887c-31.864-0.661-65.144,1.387-96.712,6.094v-207.75h96.712V426.887z M461.508,374.786
	c-4.13,0-7.478,3.348-7.478,7.478v37.276l-2.983-2.141c-3.355-2.408-8.027-1.64-10.435,1.716c-2.408,3.355-1.64,8.027,1.716,10.435
	l11.702,8.397v24.618c-26.342-5.672-36.759-37.17-19.777-57.477c1.161-1.389,1.741-3.093,1.741-4.798
	c0-3.382-1.75-4.571-3.625-7.263c-10.777-15.469-7.638-36.653,7.382-48.335c34.092-26.54,75.57,19.045,49.011,50.801
	c-2.322,2.777-2.322,6.818,0,9.594c17.097,20.443,6.286,51.868-19.777,57.477v-80.301
	C468.986,378.134,465.638,374.786,461.508,374.786z M468.986,496.257v-10.721c7.376,3.394,14.587,6.961,21.593,10.721H468.986z"/>
<g>
</g>
<g>
</g>
<g>
</g>
<g>
</g>
<g>
</g>
<g>
</g>
<g>
</g>
<g>
</g>
<g>
</g>
<g>
</g>
<g>
</g>
<g>
</g>
<g>
</g>
<g>
</g>
<g>
</g>
</svg>
